<mxfile host="Electron" agent="Mozilla/5.0 (Windows NT 10.0; Win64; x64) AppleWebKit/537.36 (KHTML, like Gecko) draw.io/25.0.2 Chrome/128.0.6613.186 Electron/32.2.5 Safari/537.36" version="25.0.2">
  <diagram name="第 1 页" id="Zt5ibXBA5WIjVIBRoW1k">
    <mxGraphModel dx="965" dy="557" grid="1" gridSize="10" guides="1" tooltips="1" connect="1" arrows="1" fold="1" page="1" pageScale="1" pageWidth="827" pageHeight="1169" math="0" shadow="0">
      <root>
        <mxCell id="0" />
        <mxCell id="1" parent="0" />
        <mxCell id="utxsDx0Z0GMCWJRTpZuH-10" value="Request" style="strokeWidth=2;html=1;shape=mxgraph.flowchart.start_1;whiteSpace=wrap;" vertex="1" parent="1">
          <mxGeometry x="50" y="10" width="100" height="60" as="geometry" />
        </mxCell>
        <mxCell id="utxsDx0Z0GMCWJRTpZuH-16" value="" style="edgeStyle=orthogonalEdgeStyle;rounded=0;orthogonalLoop=1;jettySize=auto;html=1;" edge="1" parent="1" source="utxsDx0Z0GMCWJRTpZuH-13" target="utxsDx0Z0GMCWJRTpZuH-15">
          <mxGeometry relative="1" as="geometry" />
        </mxCell>
        <mxCell id="utxsDx0Z0GMCWJRTpZuH-13" value="SSL" style="strokeWidth=2;html=1;shape=mxgraph.flowchart.decision;whiteSpace=wrap;" vertex="1" parent="1">
          <mxGeometry x="50" y="95" width="110" height="60" as="geometry" />
        </mxCell>
        <mxCell id="utxsDx0Z0GMCWJRTpZuH-15" value="是否缓存证书" style="rhombus;whiteSpace=wrap;html=1;" vertex="1" parent="1">
          <mxGeometry x="250" y="85" width="140" height="80" as="geometry" />
        </mxCell>
      </root>
    </mxGraphModel>
  </diagram>
</mxfile>
